<svg width="600" height="700" xmlns="http://www.w3.org/2000/svg">

 <g>
  <title>background</title>
  <rect fill="none" id="canvas_background" height="702" width="602" y="-1" x="-1"/>
 </g>
 <g>
  <title>Layer 1</title>
  <g id="svg_22">
   <path id="svg_10" d="m39.608093,590.410372l89.250362,-414.001635l297.501222,0l89.25033,414.001635l-476.001913,0z" stroke-opacity="0" stroke-width="1.5" stroke="#0f0f00" fill="#e5e5e5"/>
   <g id="svg_1">
    <g id="svg_2">
     <path fill="#482816" id="svg_3" d="m358.021058,374.042453c18.631,-9.483 30.288,-26.184 27.565,-54.007c-3.667,-38.023 -36.526,-50.773 -78.006,-54.404l-0.008,-52.741l-32.139,0l-0.009,51.354c-8.456,0 -17.076,0.166 -25.657,0.338l-0.007,-51.685l-32.11,-0.003l-0.006,52.728c-6.959,0.142 -13.793,0.277 -20.466,0.277l0,-0.156l-44.33,-0.018l0.006,34.282c0,0 23.734,-0.446 23.343,-0.013c13.013,0.009 17.262,7.559 18.484,14.076l0.01,60.083l0,84.397c-0.573,4.09 -2.984,10.625 -12.083,10.637c0.414,0.364 -23.379,-0.004 -23.379,-0.004l-6.375,38.335l41.817,0c7.792,0.009 15.448,0.13 22.959,0.19l0.028,53.338l32.102,0.009l-0.009,-52.779c8.832,0.18 17.357,0.258 25.684,0.247l-0.009,52.532l32.138,0l0.018,-53.249c54.022,-3.1 91.842,-16.697 96.544,-67.385c3.79,-40.809 -15.434,-59.025 -46.105,-66.379zm-107.486,-71.721c18.126,0 75.132,-5.767 75.14,32.064c-0.008,36.269 -56.996,32.032 -75.14,32.032l0,-64.096zm-0.014,167.126l0.014,-70.672c21.778,-0.006 90.085,-6.261 90.094,35.32c0.009,39.876 -68.316,35.336 -90.108,35.352z"/>
    </g>
   </g>
   <path id="svg_12" d="m475.343529,483.139433l-42.44948,0l-34.72594,38.54196l0,47.11425l104.82533,116.34457l77.17543,-85.66362l-104.82534,-116.33716zm-51.85526,44.6989c-4.13213,-4.58621 -4.13213,-12.01751 0,-16.59631c4.13214,-4.58621 10.82766,-4.58621 14.95979,0c4.13881,4.59362 4.13213,12.0101 0,16.60372c-4.13213,4.58621 -10.82765,4.58621 -14.95979,-0.00741z" stroke-opacity="0" stroke-width="1.5" stroke="#0f0f00" fill="#FABA6F"/>
   <path id="svg_13" d="m413.89598,225.448054l-0.031795,0l-0.02601,0.02601l0,0.031795l0.078515,0.078515l0.057805,-0.05781l-0.078515,-0.07851zm-0.03884,0.030165c-0.003095,-0.003095 -0.003095,-0.00811 0,-0.0112c0.003095,-0.003095 0.00811,-0.003095 0.011205,0c0.0031,0.0031 0.003095,0.008105 0,0.011205c-0.003095,0.003095 -0.00811,0.003095 -0.011205,-0.000005z" stroke-opacity="null" stroke-width="1.5" stroke="#000" fill="#999999"/>
   <path id="svg_16" d="m414.999655,114.998464" opacity="0.5" stroke-opacity="0" stroke-width="1.5" stroke="#0f0f00" fill="#ff7f00"/>
   <path stroke="#0f0f00" d="m430.999729,74.99831c0,2 0,4.000015 0,4.000015l0,0" id="svg_17" stroke-opacity="0" stroke-width="1.5" fill="none"/>
   <path stroke="#000000" id="svg_20" d="m186.998729,176.998715c2.994141,-150.00061 185.771659,-154.00062 184.00243,2.00001" opacity="0.5" fill-opacity="0" stroke-width="30" fill="#ff7f00"/>
   <polyline stroke="#444421" stroke-linecap="round" id="svg_21" points="206.9988136291504,18.998073637485504 206.9988136291504,18.998073637485504 " fill-opacity="0" stroke-opacity="null" stroke-width="1.5" fill="none"/>
  </g>
 </g>
</svg>